<?xml version="1.0" standalone="no"?>
<!DOCTYPE svg PUBLIC "-//W3C//DTD SVG 20010904//EN"
 "http://www.w3.org/TR/2001/REC-SVG-20010904/DTD/svg10.dtd">
<svg version="1.0" xmlns="http://www.w3.org/2000/svg"
 width="384.000000pt" height="384.000000pt" viewBox="0 0 384.000000 384.000000"
 preserveAspectRatio="xMidYMid meet">

<g transform="translate(0.000000,384.000000) scale(0.100000,-0.100000)"
fill="#000000" stroke="none">
<path d="M1673 3824 c-530 -77 -986 -346 -1298 -765 -261 -350 -389 -765 -372
-1209 10 -282 68 -511 191 -766 240 -494 670 -855 1202 -1008 378 -108 752
-99 1140 29 287 94 517 237 740 459 321 321 505 701 553 1148 29 261 -2 566
-80 799 -146 433 -411 776 -791 1023 -184 120 -436 223 -645 265 -206 41 -462
51 -640 25z m565 -253 c505 -108 923 -431 1146 -886 66 -133 99 -225 137 -375
18 -71 22 -124 26 -314 6 -245 0 -307 -43 -471 -72 -279 -208 -515 -420 -735
-120 -123 -124 -129 -125 -171 0 -42 -1 -41 -20 30 -20 75 -46 135 -82 184
l-19 29 33 28 c19 16 37 29 41 30 4 0 34 33 67 74 35 43 71 76 85 80 28 7 70
58 79 96 4 15 -2 40 -15 67 -20 40 -21 46 -8 113 11 59 11 96 1 208 -12 128
-15 142 -52 212 -87 166 -168 244 -326 311 -67 28 -93 33 -178 37 -206 8 -366
-46 -484 -165 -118 -119 -181 -216 -181 -281 0 -21 -11 -76 -25 -122 -14 -46
-25 -93 -25 -104 0 -12 16 -54 37 -93 l37 -73 -23 -31 c-46 -62 -35 -123 28
-166 37 -25 76 -31 68 -10 -18 49 -14 54 11 10 48 -85 89 -129 160 -176 89
-58 155 -84 244 -98 145 -22 169 -29 79 -23 -71 5 -189 30 -277 59 -17 5 -25
0 -43 -30 -51 -87 -81 -178 -98 -298 -9 -67 -20 -126 -24 -131 -4 -4 -12 18
-19 50 -30 154 -203 781 -219 797 -11 11 -252 79 -258 73 -3 -3 16 -34 41 -70
68 -94 186 -350 186 -402 0 -13 -25 -46 -62 -82 l-63 -62 73 -73 c42 -43 72
-81 71 -92 0 -20 0 -20 -9 0 -4 11 -40 51 -79 90 -39 38 -71 73 -71 77 0 5 27
34 61 66 60 56 61 58 56 100 -6 54 -148 345 -206 422 -55 73 -55 103 2 131 23
12 62 41 87 64 27 27 68 52 103 65 57 21 58 22 43 43 -9 12 -23 32 -32 44 -25
35 -12 51 50 58 62 8 62 6 30 99 -14 40 -12 56 9 56 7 0 46 16 87 36 85 41 88
30 -30 108 -36 23 -65 49 -65 56 0 8 29 25 70 40 74 28 151 66 199 98 34 23
39 20 -99 77 -49 21 -94 41 -98 45 -4 4 40 53 99 109 59 55 105 103 103 106
-3 2 -63 14 -134 25 -71 11 -131 22 -133 24 -5 5 17 48 89 173 33 56 59 106
59 111 0 5 -55 -10 -122 -35 -66 -24 -128 -43 -136 -41 -24 5 -33 51 -39 206
-3 78 -9 142 -13 142 -18 0 -191 -124 -235 -169 -27 -28 -52 -51 -56 -51 -4 0
-39 39 -77 88 -90 112 -140 160 -146 141 -2 -8 -7 -39 -11 -69 -8 -76 -44
-207 -60 -220 -10 -9 -31 -4 -83 19 -69 30 -182 64 -189 57 -3 -2 9 -35 25
-74 34 -78 58 -173 49 -194 -4 -11 -45 -18 -158 -27 -85 -7 -162 -14 -172 -17
-14 -4 -2 -22 62 -90 44 -47 89 -104 100 -127 l21 -41 -23 -24 c-12 -13 -64
-53 -115 -89 -50 -37 -92 -69 -92 -73 0 -3 33 -16 73 -27 74 -22 157 -75 178
-114 9 -18 2 -30 -65 -99 -42 -43 -76 -82 -76 -88 0 -6 30 -20 67 -32 117 -37
123 -40 123 -66 0 -13 -7 -49 -15 -81 -23 -89 -26 -86 65 -81 90 4 81 11 95
-77 9 -56 11 -57 55 -35 l38 19 -44 88 c-46 91 -87 231 -99 343 -11 96 1 69
19 -42 19 -114 72 -269 116 -338 30 -46 98 -100 147 -114 33 -10 45 -30 34
-57 -7 -20 -33 -32 -157 -73 -82 -26 -154 -53 -161 -60 -6 -6 -43 -121 -82
-255 -39 -134 -73 -246 -76 -249 -3 -3 -5 6 -5 20 0 18 -24 53 -73 111 -216
252 -355 562 -398 882 -19 144 -6 435 25 565 34 145 69 247 127 370 216 456
658 801 1150 899 151 30 147 30 364 26 152 -3 222 -8 293 -24z m-1084 -2397
c-35 -79 -101 -256 -115 -308 l-11 -41 73 -67 c71 -65 73 -68 56 -85 -17 -17
-18 -17 -11 0 5 13 -10 34 -60 81 -41 39 -66 72 -66 85 0 40 145 409 157 398
2 -2 -8 -30 -23 -63z"/>
</g>
</svg>
